<svg width="26" height="38" viewBox="0 0 26 38" fill="none" xmlns="http://www.w3.org/2000/svg">
<path d="M24.0893 8.25562C20.2072 8.25562 16.7346 10.0314 14.4359 12.8085V19.887C14.4359 19.887 14.4655 19.8525 14.4852 19.8328C14.9144 15.4278 18.318 11.8812 22.6588 11.2301V15.418C23.1323 15.3637 23.6059 15.3341 24.0942 15.3341H25.5297V8.25562H24.0942H24.0893Z" fill="#317B22"/>
<path d="M24.0883 15.3342C23.6048 15.3342 23.1264 15.3638 22.6528 15.418C19.3824 15.7929 16.4918 17.4306 14.4793 19.8328C14.4645 19.8526 14.4497 19.8674 14.4299 19.8871V12.7297C14.4299 5.82384 8.81154 0.205444 1.9057 0.205444H0.470276V16.7647C0.470276 23.1871 5.32903 28.4898 11.5591 29.205V37.3342H12.9945C19.9004 37.3342 25.5187 31.7158 25.5187 24.81V15.3292H24.0833L24.0883 15.3342ZM3.34606 16.7696V3.18482C7.99271 3.88034 11.564 7.89559 11.564 12.7297V26.3145C6.91737 25.6189 3.34606 21.6037 3.34606 16.7696ZM22.6528 24.8149C22.6528 29.649 19.0815 33.6692 14.4349 34.3598V27.8535C14.4349 23.0194 18.0111 19.0041 22.6528 18.3086V24.8149Z" fill="#317B22"/>
<path style="mix-blend-mode:screen" opacity="0.4" d="M24.0883 15.3342C23.6048 15.3342 23.1264 15.3638 22.6528 15.418C19.3824 15.7929 16.4918 17.4306 14.4793 19.8328C14.4645 19.8526 14.4497 19.8674 14.4299 19.8871V12.7297C14.4299 5.82384 8.81154 0.205444 1.9057 0.205444H0.470276V16.7647C0.470276 23.1871 5.32903 28.4898 11.5591 29.205V37.3342H12.9945C19.9004 37.3342 25.5187 31.7158 25.5187 24.81V15.3292H24.0833L24.0883 15.3342ZM25.4201 24.8149C25.4201 31.6665 19.8461 37.2405 12.9945 37.2405H11.6577V29.1212L11.569 29.1113C5.29943 28.3911 0.568929 23.0884 0.568929 16.7696V0.309028H1.9057C8.75728 0.309028 14.3313 5.88303 14.3313 12.7346V20.1633L14.5286 19.9266L14.5533 19.897C16.6151 17.4355 19.4909 15.8768 22.6627 15.5167C23.151 15.4624 23.6295 15.4328 24.0883 15.4328H25.425V24.8149H25.4201ZM3.36086 3.08616L3.24741 3.07137V16.7696C3.24741 21.5593 6.81872 25.7077 11.5492 26.4131L11.6627 26.4279V12.7297C11.6627 7.93999 8.09136 3.79155 3.36086 3.08616ZM11.564 26.3145C6.91737 25.6189 3.34606 21.6037 3.34606 16.7696V3.18482C7.99271 3.88034 11.564 7.89559 11.564 12.7297V26.3145ZM14.3313 27.8535V34.4732L14.4447 34.4584C19.1802 33.7481 22.7465 29.6046 22.7465 24.8149V18.1952L22.6331 18.21C17.8977 18.9203 14.3313 23.0638 14.3313 27.8535ZM22.6528 24.8149C22.6528 29.649 19.0815 33.6692 14.4349 34.3598V27.8535C14.4349 23.0194 18.0111 19.0041 22.6528 18.3086V24.8149Z" fill="url(#paint0_linear_725_2504)"/>
<defs>
<linearGradient id="paint0_linear_725_2504" x1="12.9994" y1="2.41531" x2="12.9994" y2="38.6315" gradientUnits="userSpaceOnUse">
<stop stop-color="#5D17CF" stop-opacity="0"/>
<stop offset="0.25" stop-color="#9263DE" stop-opacity="0.33"/>
<stop offset="0.49" stop-color="#C0A6EC" stop-opacity="0.62"/>
<stop offset="0.69" stop-color="#E2D6F6" stop-opacity="0.82"/>
<stop offset="0.83" stop-color="#F7F3FC" stop-opacity="0.95"/>
<stop offset="0.92" stop-color="white"/>
</linearGradient>
</defs>
</svg>
