<svg width="111" height="27" viewBox="0 0 111 27" fill="none" xmlns="http://www.w3.org/2000/svg">
<path d="M16.7454 5.70728C13.9931 5.70728 11.5311 6.96628 9.90137 8.93521V13.9537C9.90137 13.9537 9.92235 13.9293 9.93634 13.9153C10.2406 10.7922 12.6537 8.27774 15.7312 7.8161V10.7852C16.067 10.7468 16.4027 10.7258 16.7489 10.7258H17.7666V5.70728H16.7489H16.7454Z" fill="#317B22"/>
<path d="M16.7447 10.726C16.402 10.726 16.0628 10.747 15.727 10.7854C13.4084 11.0512 11.359 12.2123 9.93212 13.9155C9.92163 13.9294 9.91114 13.9399 9.89715 13.9539V8.87946C9.89715 3.98334 5.91381 0 1.01769 0H0V11.7402C0 16.2936 3.44477 20.0531 7.86176 20.5602V26.3236H8.87946C13.7756 26.3236 17.7589 22.3403 17.7589 17.4442V10.7225H16.7412L16.7447 10.726ZM2.03888 11.7437V2.11232C5.33327 2.60543 7.86526 5.45217 7.86526 8.87946V18.5108C4.57087 18.0177 2.03888 15.171 2.03888 11.7437ZM15.727 17.4477C15.727 20.8749 13.195 23.7252 9.90064 24.2148V19.6019C9.90064 16.1747 12.4361 13.3279 15.727 12.8348V17.4477Z" fill="#317B22"/>
<path style="mix-blend-mode:screen" opacity="0.4" d="M16.7447 10.726C16.402 10.726 16.0628 10.747 15.727 10.7854C13.4084 11.0512 11.359 12.2123 9.93212 13.9155C9.92163 13.9294 9.91114 13.9399 9.89715 13.9539V8.87946C9.89715 3.98334 5.91381 0 1.01769 0H0V11.7402C0 16.2936 3.44477 20.0531 7.86176 20.5602V26.3236H8.87946C13.7756 26.3236 17.7589 22.3403 17.7589 17.4442V10.7225H16.7412L16.7447 10.726ZM17.689 17.4477C17.689 22.3053 13.7371 26.2572 8.87946 26.2572H7.93171V20.5007L7.86876 20.4937C3.42378 19.9831 0.0699434 16.2236 0.0699434 11.7437V0.0734387H1.01769C5.87534 0.0734387 9.8272 4.0253 9.8272 8.88295V14.1498L9.96709 13.9819L9.98458 13.9609C11.4464 12.2158 13.4853 11.1107 15.734 10.8554C16.0802 10.8169 16.4195 10.7959 16.7447 10.7959H17.6925V17.4477H17.689ZM2.04937 2.04238L1.96894 2.03189V11.7437C1.96894 15.1395 4.50093 18.0807 7.85477 18.5808L7.9352 18.5913V8.87946C7.9352 5.48365 5.40321 2.54248 2.04937 2.04238ZM7.86526 18.5108C4.57087 18.0177 2.03888 15.171 2.03888 11.7437V2.11232C5.33327 2.60543 7.86526 5.45217 7.86526 8.87946V18.5108ZM9.8272 19.6019V24.2952L9.90764 24.2847C13.265 23.7811 15.7935 20.8435 15.7935 17.4477V12.7544L15.713 12.7649C12.3557 13.2685 9.8272 16.2061 9.8272 19.6019ZM15.727 17.4477C15.727 20.8749 13.195 23.7252 9.90064 24.2148V19.6019C9.90064 16.1747 12.4361 13.3279 15.727 12.8348V17.4477Z" fill="url(#paint0_linear_121_769)"/>
<path d="M25.874 20.0249V7.60974C25.874 5.73872 25.6361 4.46223 24.9542 3.51099H32.0221C30.7456 4.70004 30.2979 6.83685 30.2979 9.48075V20.0249C30.2979 21.7175 30.3259 22.9661 30.5357 23.8578H30.9519C34.7254 23.8578 36.3586 18.2133 38.9116 18.2133V19.9654C38.9116 21.3923 38.9116 22.8751 39.2963 24.302H24.9507C25.6326 23.3822 25.8705 22.0148 25.8705 20.0249H25.874Z" fill="black"/>
<path d="M41.0217 16.8181C41.0217 12.2437 43.5747 8.79894 48.0616 8.73948C51.1497 8.71151 53.4369 9.92854 54.479 12.9886C53.7376 16.4649 50.8559 17.7693 47.7084 17.7693C46.9355 17.7413 46.1032 17.6504 45.3618 17.4721C45.8059 20.1439 47.2328 21.7492 49.6983 21.7492C51.7477 21.7492 53.7376 20.5007 54.2412 18.5422C54.3601 18.808 54.4196 19.0178 54.4196 19.4025C54.3916 22.2528 51.419 24.6589 48.1211 24.6589C43.9629 24.6589 41.0217 21.6897 41.0217 16.8181ZM45.2709 16.965C45.7465 17.0524 46.2501 17.1118 46.6977 17.1118C49.1633 17.1118 50.2929 15.1219 50.2929 12.8662C50.2929 10.4916 49.3416 9.18363 48.0337 9.18363C46.4599 9.18363 45.1834 10.9357 45.1834 15.3318C45.1834 15.8948 45.2114 16.4614 45.2709 16.965Z" fill="black"/>
<path d="M56.9125 20.7665C56.9125 17.6469 59.9411 15.9858 65.4947 15.9858H65.8794V12.6004C65.8794 10.1944 64.9876 9.15567 63.6797 9.15567C62.4626 9.15567 61.4799 10.3447 61.4799 12.1843C61.4799 12.569 61.5394 12.9572 61.5988 13.5517C61.6863 14.1462 61.4799 14.3246 60.7385 14.3246C59.4026 14.3246 57.9163 13.7615 57.2937 12.8383C58.0666 10.0754 60.5916 8.7395 63.9175 8.7395C67.9253 8.7395 70.0376 10.7294 70.0376 14.4435V21.987C70.0376 23.1761 70.1845 23.5013 70.8385 23.7706C70.0062 24.2462 68.9675 24.5435 68.1072 24.5435C66.7398 24.5435 65.8515 23.7426 65.8515 22.6724V21.8401C64.8722 23.4453 63.0012 24.6309 60.8609 24.6309C58.5458 24.6309 56.9091 23.1446 56.9091 20.77L56.9125 20.7665ZM62.7949 23.0536C64.0434 23.0536 65.2604 22.2213 65.8829 21.0322V16.3984C62.704 16.6957 61.1897 18.3569 61.1897 20.4377C61.1897 22.2213 61.9311 23.0502 62.7949 23.0502V23.0536Z" fill="black"/>
<path d="M74.7603 23.5294V9.98462H72.6794C72.6794 9.39009 72.8858 9.09283 73.6307 9.09283H74.7603V8.47032C74.2252 3.65813 77.0755 1.66821 80.7021 1.66821C81.5029 1.66821 82.2479 1.72767 83.4929 1.96548C83.5523 2.4411 83.5523 2.85727 83.5208 3.30142C83.4614 4.90664 83.0172 6.00478 82.3633 6.00478C81.1148 6.00478 80.195 2.4411 78.6492 2.4411C77.7574 2.4411 77.3413 3.27344 77.3413 4.40305C77.3413 5.71101 77.9638 7.78836 78.5898 9.09632H82.1534C82.1534 9.92866 81.9156 10.2259 81.2022 10.2259C80.5482 10.2259 79.7753 10.1665 78.887 10.107V21.7808C78.887 22.76 79.0059 23.6238 79.5095 24.3337C78.5583 24.4806 77.1944 24.5401 76.3305 24.5401C75.082 24.5401 74.7568 24.4212 74.7568 23.5294H74.7603Z" fill="black"/>
<path d="M83.7046 21.3015C85.1909 17.8847 89.7058 6.62717 89.7058 4.54982C89.7058 4.13365 89.6464 3.83638 89.4995 3.63005C90.6291 3.45169 92.1714 3.36426 93.0947 3.36426C94.2243 3.36426 94.5495 3.60207 94.8468 4.43441L100.46 19.9376C101.054 21.6617 101.736 23.2949 102.45 24.3056H96.1827C96.5394 23.5048 96.5394 22.2563 95.9449 20.5321L94.6684 16.937H88.3104C88.2825 19.0178 88.6951 22.015 88.5168 23.0257C88.4573 24.0364 87.8348 24.3021 86.5548 24.3021H82.0399C82.603 23.5293 83.1101 22.6969 83.7046 21.3015ZM94.4271 16.2515L90.3878 4.8156C89.1987 8.49818 88.279 12.6284 88.3384 16.2515H94.4271Z" fill="black"/>
<path d="M105.681 20.0249V7.60974C105.681 5.73872 105.443 4.46223 104.761 3.51099H111C110.318 4.46223 110.108 5.73872 110.108 7.60974V20.0249C110.108 22.0148 110.315 23.3822 111 24.302H104.761C105.443 23.3822 105.681 22.0148 105.681 20.0249Z" fill="black"/>
<defs>
<linearGradient id="paint0_linear_121_769" x1="8.88295" y1="1.56676" x2="8.88295" y2="27.2434" gradientUnits="userSpaceOnUse">
<stop stop-color="#5D17CF" stop-opacity="0"/>
<stop offset="0.25" stop-color="#9263DE" stop-opacity="0.33"/>
<stop offset="0.49" stop-color="#C0A6EC" stop-opacity="0.62"/>
<stop offset="0.69" stop-color="#E2D6F6" stop-opacity="0.82"/>
<stop offset="0.83" stop-color="#F7F3FC" stop-opacity="0.95"/>
<stop offset="0.92" stop-color="white"/>
</linearGradient>
</defs>
</svg>
