<svg width="15" height="16" viewBox="0 0 15 16" fill="none" xmlns="http://www.w3.org/2000/svg">
<path d="M7.49798 3.97551C5.36846 3.97551 3.64983 5.69417 3.64983 7.82373C3.64983 9.95329 5.36846 11.672 7.49798 11.672C9.62751 11.672 11.3461 9.95329 11.3461 7.82373C11.3461 5.69417 9.62751 3.97551 7.49798 3.97551ZM7.49798 10.3248C6.12083 10.3248 4.99697 9.20091 4.99697 7.82373C4.99697 6.44655 6.12083 5.32267 7.49798 5.32267C8.87514 5.32267 9.999 6.44655 9.999 7.82373C9.999 9.20091 8.87514 10.3248 7.49798 10.3248ZM11.5037 2.92104C11.0065 2.92104 10.605 3.32256 10.605 3.81978C10.605 4.31699 11.0065 4.71851 11.5037 4.71851C12.0009 4.71851 12.4025 4.31886 12.4025 3.81978C12.4026 3.70171 12.3795 3.58478 12.3343 3.47567C12.2892 3.36656 12.223 3.26743 12.1396 3.18395C12.0561 3.10046 11.9569 3.03427 11.8478 2.98915C11.7387 2.94404 11.6218 2.92089 11.5037 2.92104ZM14.9992 7.82373C14.9992 6.78803 15.0085 5.76171 14.9504 4.72789C14.8922 3.52708 14.6183 2.46136 13.7402 1.58326C12.8603 0.703294 11.7964 0.431236 10.5956 0.373071C9.55996 0.314907 8.53366 0.324289 7.49986 0.324289C6.46418 0.324289 5.43788 0.314907 4.40408 0.373071C3.20329 0.431236 2.13759 0.705171 1.25951 1.58326C0.379557 2.46323 0.107503 3.52708 0.0493401 4.72789C-0.00882312 5.76359 0.000558074 6.78991 0.000558074 7.82373C0.000558074 8.85755 -0.00882312 9.88575 0.0493401 10.9196C0.107503 12.1204 0.381433 13.1861 1.25951 14.0642C2.13946 14.9442 3.20329 15.2162 4.40408 15.2744C5.43976 15.3326 6.46606 15.3232 7.49986 15.3232C8.53554 15.3232 9.56184 15.3326 10.5956 15.2744C11.7964 15.2162 12.8621 14.9423 13.7402 14.0642C14.6202 13.1842 14.8922 12.1204 14.9504 10.9196C15.0104 9.88575 14.9992 8.85943 14.9992 7.82373ZM13.3481 12.248C13.2111 12.5895 13.046 12.8446 12.7815 13.1073C12.5169 13.3719 12.2636 13.537 11.9221 13.6739C10.9352 14.0661 8.59183 13.9779 7.49798 13.9779C6.40414 13.9779 4.05885 14.0661 3.07195 13.6758C2.73048 13.5388 2.47531 13.3737 2.21264 13.1092C1.94809 12.8446 1.78298 12.5913 1.64601 12.2498C1.25576 11.2611 1.34394 8.91759 1.34394 7.82373C1.34394 6.72987 1.25576 4.38453 1.64601 3.39762C1.78298 3.05613 1.94809 2.80096 2.21264 2.53828C2.47719 2.27561 2.73048 2.10862 3.07195 1.97165C4.05885 1.58139 6.40414 1.66957 7.49798 1.66957C8.59183 1.66957 10.9371 1.58139 11.924 1.97165C12.2655 2.10862 12.5207 2.27373 12.7833 2.53828C13.0479 2.80284 13.213 3.05613 13.35 3.39762C13.7402 4.38453 13.652 6.72987 13.652 7.82373C13.652 8.91759 13.7402 11.2611 13.3481 12.248Z" fill="#368E22"/>
</svg>
