<svg width="19" height="19" viewBox="0 0 19 19" fill="none" xmlns="http://www.w3.org/2000/svg">
<path d="M2.188 4.69973C3.3964 4.69973 4.376 3.72013 4.376 2.51173C4.376 1.30333 3.3964 0.32373 2.188 0.32373C0.979601 0.32373 0 1.30333 0 2.51173C0 3.72013 0.979601 4.69973 2.188 4.69973Z" fill="#368E22"/>
<path d="M6.44229 6.35713V18.4961H10.2113V12.4931C10.2113 10.9091 10.5093 9.37513 12.4733 9.37513C14.4103 9.37513 14.4343 11.1861 14.4343 12.5931V18.4971H18.2053V11.8401C18.2053 8.57013 17.5013 6.05713 13.6793 6.05713C11.8443 6.05713 10.6143 7.06413 10.1113 8.01713H10.0603V6.35713H6.44229ZM0.300293 6.35713H4.07529V18.4961H0.300293V6.35713Z" fill="#368E22"/>
</svg>
