<svg width="17" height="16" viewBox="0 0 17 16" fill="none" xmlns="http://www.w3.org/2000/svg">
<path d="M17 2.10554C16.3748 2.39844 15.6945 2.60924 14.9938 2.69134C15.7213 2.22189 16.2661 1.48025 16.526 0.605544C15.8433 1.04664 15.0954 1.35595 14.3155 1.51974C13.9895 1.14125 13.5952 0.83973 13.1573 0.633963C12.7193 0.428196 12.247 0.322595 11.7699 0.32374C9.8392 0.32374 8.2865 2.02344 8.2865 4.10924C8.2865 4.40214 8.31919 4.69504 8.37231 4.97684C5.48143 4.81264 2.90314 3.31264 1.18904 1.01605C0.876713 1.59544 0.713043 2.25516 0.715058 2.92655C0.715058 4.24016 1.33001 5.39844 2.26776 6.07965C1.71513 6.05602 1.17544 5.89104 0.692585 5.59815V5.64474C0.692585 7.48424 1.8898 9.00865 3.4854 9.35924C3.18581 9.44376 2.87761 9.487 2.56808 9.48794C2.34131 9.48794 2.12679 9.46353 1.91023 9.43024C2.35152 10.9302 3.63658 12.0197 5.16681 12.0552C3.96959 13.0737 2.47002 13.6728 0.841726 13.6728C0.549573 13.6728 0.279894 13.6617 0 13.6262C1.54453 14.7024 3.37712 15.3237 5.35068 15.3237C11.7576 15.3237 15.2634 9.55894 15.2634 4.55525C15.2634 4.39105 15.2634 4.22684 15.2532 4.06264C15.9315 3.52344 16.526 2.85554 17 2.10554Z" fill="#368E22"/>
</svg>
